<?xml version="1.0" encoding="utf-8"?>
<!-- Generator: Adobe Illustrator 21.0.2, SVG Export Plug-In . SVG Version: 6.00 Build 0)  -->
<svg version="1.1" id="Слой_1" xmlns="http://www.w3.org/2000/svg" xmlns:xlink="http://www.w3.org/1999/xlink" x="0px" y="0px"
	 viewBox="0 0 36 36" style="enable-background:new 0 0 36 36;" xml:space="preserve">
<style type="text/css">
	.st0{fill:#E3072B;}
</style>
<g id="ic_x5F_arrowBack_x0D__2">
</g>
<g>
	<polygon class="st0" points="2.7,6.9 9.2,6.9 9.2,4.2 0,4.2 0,13.4 2.7,13.4 	"/>
	<g>
		<polygon class="st0" points="26.8,4.2 26.8,6.9 33.3,6.9 33.3,13.4 36,13.4 36,4.2 		"/>
		<polygon class="st0" points="33.3,29.1 26.8,29.1 26.8,31.8 36,31.8 36,22.6 33.3,22.6 		"/>
	</g>
	<polygon class="st0" points="2.7,22.6 0,22.6 0,31.8 9.2,31.8 9.2,29.1 2.7,29.1 	"/>
	<g>
		<path class="st0" d="M11.1,9.5c-0.4,0-0.8,0.4-0.8,0.8v15.4c0,0.4,0.4,0.8,0.8,0.8s0.8-0.4,0.8-0.8V10.3
			C11.9,9.9,11.5,9.5,11.1,9.5z"/>
		<path class="st0" d="M17.2,9.5h-2.5c-0.4,0-0.8,0.3-0.8,0.8v15.4c0,0.4,0.3,0.8,0.8,0.8h2.5c0.4,0,0.8-0.3,0.8-0.8V10.3
			C18,9.8,17.6,9.5,17.2,9.5z"/>
		<path class="st0" d="M20.7,9.5c-0.4,0-0.8,0.4-0.8,0.8v15.4c0,0.4,0.4,0.8,0.8,0.8s0.8-0.4,0.8-0.8V10.3
			C21.6,9.9,21.2,9.5,20.7,9.5z"/>
		<path class="st0" d="M24.4,9.5c-0.4,0-0.8,0.4-0.8,0.8v15.4c0,0.4,0.4,0.8,0.8,0.8s0.8-0.4,0.8-0.8V10.3
			C25.2,9.9,24.8,9.5,24.4,9.5z"/>
		<path class="st0" d="M29.7,9.5h-1.8c-0.4,0-0.8,0.3-0.8,0.8v15.4c0,0.4,0.3,0.8,0.8,0.8h1.8c0.4,0,0.8-0.3,0.8-0.8V10.3
			C30.5,9.8,30.2,9.5,29.7,9.5z"/>
		<path class="st0" d="M7.5,9.5H6.3c-0.4,0-0.8,0.3-0.8,0.8v15.4c0,0.4,0.3,0.8,0.8,0.8h1.3c0.4,0,0.8-0.3,0.8-0.8V10.3
			C8.3,9.8,8,9.5,7.5,9.5z"/>
	</g>
</g>
</svg>
