<?xml version="1.0" encoding="utf-8"?>
<!-- Generator: Adobe Illustrator 22.1.0, SVG Export Plug-In . SVG Version: 6.00 Build 0)  -->
<svg version="1.1" id="Слой_1" xmlns="http://www.w3.org/2000/svg" xmlns:xlink="http://www.w3.org/1999/xlink" x="0px" y="0px"
	 viewBox="0 0 44 44" style="enable-background:new 0 0 44 44;" xml:space="preserve">
<style type="text/css">
	.st0{fill:#6A8DD9;}
	.st1{fill:#FFFFFF;}
</style>
<g>
	<path class="st0" d="M30.4,2.2C30.1,1.9,29.5,1.8,29,2s-0.8,0.7-0.8,1.2v6.5c0,0.7,0.6,1.3,1.3,1.3H36c0.5,0,1-0.3,1.2-0.8
		s0.1-1.1-0.3-1.4L30.4,2.2z"/>
	<path class="st0" d="M28.1,13.8c-1.5,0-2.6-1.2-2.6-2.6V1.3c0-0.7-0.6-1.3-1.3-1.3H8.9C6.6,0,4.8,1.8,4.8,4.1v35.8
		c0,2.3,1.8,4.1,4.1,4.1h26.2c2.3,0,4.1-1.8,4.1-4.1V15.1c0-0.7-0.6-1.3-1.3-1.3H28.1z"/>
</g>
<g>
	<path class="st1" d="M21.9,19.8v1.7c-2.9,0-5.2,2.4-5.2,5.2h-1.7C14.9,22.9,18.1,19.8,21.9,19.8z"/>
	<path class="st1" d="M24.4,26.5c0.1,0.1,0.2,0.2,0.2,0.4c0,0.1-0.1,0.3-0.2,0.4l-3.5,2.2c-0.1,0-0.2,0.1-0.2,0.1
		c-0.1,0-0.1,0-0.2-0.1c-0.1-0.1-0.2-0.2-0.2-0.4v-4.4c0-0.2,0.1-0.3,0.2-0.4c0.1-0.1,0.3-0.1,0.4,0L24.4,26.5z"/>
	<path class="st1" d="M21.9,33.9c-3.8,0-7-3.1-7-6.9h1.7c0,2.9,2.4,5.2,5.2,5.2V33.9z"/>
	<path class="st1" d="M22.1,33.9v-1.7c2.9,0,5.2-2.3,5.2-5.2h1.7C29.1,30.8,25.9,33.9,22.1,33.9z"/>
	<path class="st1" d="M27.3,26.7c0-2.9-2.4-5.2-5.2-5.2v-1.7c3.8,0,7,3.1,7,7H27.3z"/>
</g>
</svg>
