<?xml version="1.0" encoding="utf-8"?>
<!-- Generator: Adobe Illustrator 21.0.2, SVG Export Plug-In . SVG Version: 6.00 Build 0)  -->
<svg version="1.1" id="Слой_1" xmlns="http://www.w3.org/2000/svg" xmlns:xlink="http://www.w3.org/1999/xlink" x="0px" y="0px"
	 viewBox="0 0 123.5 120" style="enable-background:new 0 0 123.5 120;" xml:space="preserve">
<style type="text/css">
	.st0{fill:url(#XMLID_2_);}
	.st1{fill:#E3072B;stroke:#FFFFFF;stroke-width:4;stroke-miterlimit:10;}
</style>
<linearGradient id="XMLID_2_" gradientUnits="userSpaceOnUse" x1="80.1567" y1="-485.9381" x2="77.6389" y2="-457.1595" gradientTransform="matrix(1 0 0 1 0 567.84)">
	<stop  offset="0" style="stop-color:#FFFFFF;stop-opacity:0"/>
	<stop  offset="1" style="stop-color:#000000;stop-opacity:0.5"/>
</linearGradient>
<polygon id="XMLID_909_" class="st0" points="39,107.3 123.5,87 36.7,78.1 "/>
<path id="XMLID_1199_" class="st1" d="M39,12.7c-19.6,0-35.5,15.9-35.5,35.5c0,29.6,32.3,59.2,35.5,59.2
	c2.5-0.1,35.5-29.6,35.5-59.2C74.5,28.6,58.6,12.7,39,12.7z M39,62c-7.6,0-13.8-6.2-13.8-13.8c0-7.6,6.2-13.8,13.8-13.8
	s13.8,6.2,13.8,13.8C52.8,55.8,46.6,62,39,62z"/>
</svg>
