<?xml version="1.0" encoding="utf-8"?>
<!-- Generator: Adobe Illustrator 21.0.2, SVG Export Plug-In . SVG Version: 6.00 Build 0)  -->
<svg version="1.1" id="Слой_1" xmlns="http://www.w3.org/2000/svg" xmlns:xlink="http://www.w3.org/1999/xlink" x="0px" y="0px"
	 viewBox="0 0 30 30" style="enable-background:new 0 0 30 30;" xml:space="preserve">
<style type="text/css">
	.st0{fill:#FFFFFF;}
</style>
<path id="XMLID_512_" class="st0" d="M13.2,2.4l-0.9,3.2c-0.8,0.2-1.6,0.5-2.3,1L7.1,4.9L4.5,7.4l1.6,2.9c-0.4,0.7-0.7,1.5-1,2.3
	L2,13.5v3.6l3.2,0.9c0.2,0.8,0.5,1.6,1,2.3l-1.6,2.9l2.6,2.6l2.9-1.6c0.7,0.4,1.5,0.7,2.3,1l0.9,3.2h3.6l0.9-3.2
	c0.8-0.2,1.6-0.5,2.3-1l2.9,1.6l2.6-2.6l-1.6-2.9c0.4-0.7,0.7-1.5,1-2.3l3.2-0.9v-3.6l-3.2-0.9c-0.2-0.8-0.5-1.6-1-2.3l1.6-2.9
	l-2.6-2.6L20,6.5c-0.7-0.4-1.5-0.7-2.3-1l-0.9-3.2H13.2z M15,9.4c3.2,0,5.9,2.7,5.9,5.9s-2.7,5.9-5.9,5.9s-5.9-2.7-5.9-5.9
	S11.8,9.4,15,9.4z M15,13c-1.3,0-2.4,1-2.4,2.4s1,2.4,2.4,2.4s2.4-1,2.4-2.4S16.3,13,15,13z"/>
</svg>
