<?xml version="1.0" encoding="utf-8"?>
<!-- Generator: Adobe Illustrator 21.0.2, SVG Export Plug-In . SVG Version: 6.00 Build 0)  -->
<svg version="1.1" id="Слой_1" xmlns="http://www.w3.org/2000/svg" xmlns:xlink="http://www.w3.org/1999/xlink" x="0px" y="0px"
	 viewBox="0 0 30 30" style="enable-background:new 0 0 30 30;" xml:space="preserve">
<style type="text/css">
	.st0{fill:#FFFFFF;}
</style>
<g>
	<path class="st0" d="M15,3.6C8.6,3.6,3.5,8.8,3.5,15.1S8.6,26.6,15,26.6s11.5-5.1,11.5-11.5S21.4,3.6,15,3.6z M15,4.9
		c0.7,0,1.3,0.6,1.3,1.3S15.7,7.4,15,7.4s-1.3-0.6-1.3-1.3S14.3,4.9,15,4.9z M15,21.5c-3.5,0-6.4-2.9-6.4-6.4s2.9-6.4,6.4-6.4
		s6.4,2.9,6.4,6.4S18.5,21.5,15,21.5z"/>
	<path class="st0" d="M18.8,15.1L18.8,15.1c0,2.2-1.7,3.9-3.8,3.9s-3.8-1.7-3.8-3.8s1.7-3.8,3.8-3.8c0.2,0,0.4,0,0.5,0
		C15.5,13.2,17,14.8,18.8,15.1z"/>
</g>
</svg>
