<?xml version="1.0" encoding="utf-8"?>
<!-- Generator: Adobe Illustrator 22.1.0, SVG Export Plug-In . SVG Version: 6.00 Build 0)  -->
<svg version="1.1" id="Слой_1" xmlns="http://www.w3.org/2000/svg" xmlns:xlink="http://www.w3.org/1999/xlink" x="0px" y="0px"
	 viewBox="0 0 260 149" style="enable-background:new 0 0 260 149;" xml:space="preserve">
<style type="text/css">
	.st0{fill:#E6E6E6;}
</style>
<g>
	<g>
		<path class="st0" d="M19.1,28.1h-5.2C8.4,28.1,0,46.6,0,74.5s8.4,46.4,13.9,46.4h5.2c-6.5-10.5-9.8-28.5-9.8-46.4
			S12.6,38.6,19.1,28.1z"/>
		<path class="st0" d="M227.5,28.1h-51.1c-2.6,0-4.6-2.1-4.6-4.6s2.1-4.6,4.6-4.6h8.9l-9.7-12.2c-0.9-1.1-2.2-1.7-3.6-1.7H88
			c-1.4,0-2.7,0.6-3.6,1.7l-9.7,12.2h8.9c2.6,0,4.6,2.1,4.6,4.6s-2.1,4.6-4.6,4.6H32.5c-5.5,0-13.9,18.5-13.9,46.4
			s8.4,46.4,13.9,46.4h51.1c2.6,0,4.6,2.1,4.6,4.6c0,2.6-2.1,4.6-4.6,4.6h-8.9l9.7,12.2c0.9,1.1,2.2,1.7,3.6,1.7H172
			c1.4,0,2.7-0.6,3.6-1.7l9.7-12.2h-8.9c-2.6,0-4.6-2.1-4.6-4.6c0-2.6,2.1-4.6,4.6-4.6h51.1c5.5,0,13.9-18.5,13.9-46.4
			S233,28.1,227.5,28.1z M130,130.2c-30.8,0-55.7-24.9-55.7-55.7S99.2,18.8,130,18.8s55.7,24.9,55.7,55.7
			C185.7,105.3,160.8,130.2,130,130.2z"/>
		<path class="st0" d="M246.1,28.1h-5.2c6.5,10.5,9.8,28.5,9.8,46.4s-3.4,35.9-9.8,46.4h5.2c5.5,0,13.9-18.5,13.9-46.4
			S251.6,28.1,246.1,28.1z"/>
		<path class="st0" d="M130,46.6c-15.4,0-27.9,12.5-27.9,27.9s12.5,27.9,27.9,27.9s27.9-12.5,27.9-27.9
			C157.8,59.1,145.4,46.7,130,46.6z M121.2,71.4c-0.6,1.6-1.9,2.7-3.5,3c-1.6,0.3-3.3-0.3-4.4-1.6c-1.1-1.3-1.4-3-0.8-4.6
			c2.6-7.4,9.6-12.4,17.5-12.4c2.6,0,4.6,2.1,4.6,4.6s-2.1,4.6-4.6,4.6C126.1,65.2,122.6,67.7,121.2,71.4z M148.3,80.7
			c-2.6,7.4-9.6,12.4-17.5,12.4c-2.6,0-4.6-2.1-4.6-4.6c0-2.6,2.1-4.6,4.6-4.6c3.9,0,7.4-2.5,8.8-6.2c0.9-2.4,3.5-3.7,5.9-2.8
			C147.9,75.6,149.2,78.3,148.3,80.7z"/>
		<path class="st0" d="M130,28.1c-25.6,0-46.4,20.8-46.4,46.4s20.8,46.4,46.4,46.4s46.4-20.8,46.4-46.4
			C176.4,48.9,155.6,28.1,130,28.1z M130,111.6c-20.5,0-37.1-16.6-37.1-37.1s16.6-37.1,37.1-37.1s37.1,16.6,37.1,37.1
			C167.1,95,150.5,111.6,130,111.6z"/>
	</g>
</g>
</svg>
