<?xml version="1.0" encoding="utf-8"?>
<!-- Generator: Adobe Illustrator 22.1.0, SVG Export Plug-In . SVG Version: 6.00 Build 0)  -->
<svg version="1.1" id="Слой_1" xmlns="http://www.w3.org/2000/svg" xmlns:xlink="http://www.w3.org/1999/xlink" x="0px" y="0px"
	 viewBox="0 0 44 44" style="enable-background:new 0 0 44 44;" xml:space="preserve">
<style type="text/css">
	.st0{fill:#6A8DD9;}
</style>
<g>
	<path class="st0" d="M0.1,38.5c0.4,2.1,2.3,3.6,4.5,3.6c2.6,0,4.6-2,4.6-4.5v-9.2c0-3.5,2.9-6.4,6.4-6.4h23.8
		c1.8,0,3.4,0.7,4.6,1.9V12.8c0-4-3.3-7.3-7.3-7.3H22.1C21.5,3.1,18.8,0,15.7,0H6.5C3.1,0,0,3.3,0,7v30.6C0,37.9,0,38.2,0.1,38.5
		L0.1,38.5z"/>
	<path class="st0" d="M44,28.4c0-2.5-2-4.6-4.6-4.6H15.6c-2.5,0-4.6,2.1-4.6,4.6v9.2c0,3.2-2.4,5.8-5.5,6.3c0.3,0,0.6,0.1,0.9,0.1
		c0.2,0,0.4,0,0.6,0c0.1,0,0.2,0,0.2,0h30.3c3.5,0,6.4-2.9,6.4-6.4v-8.2L44,28.4z"/>
</g>
</svg>
