<?xml version="1.0" encoding="utf-8"?>
<!-- Generator: Adobe Illustrator 22.1.0, SVG Export Plug-In . SVG Version: 6.00 Build 0)  -->
<svg version="1.1" id="Слой_1" xmlns="http://www.w3.org/2000/svg" xmlns:xlink="http://www.w3.org/1999/xlink" x="0px" y="0px"
	 viewBox="0 0 54 54" style="enable-background:new 0 0 54 54;" xml:space="preserve">
<style type="text/css">
	.st0{fill:#00ABC3;}
</style>
<g transform="translate(0,-952.36218)">
	<path class="st0" d="M0,960.4v1.1v9.2h2.3v-8h8v-2.3H1.1H0z M43.7,960.4v2.3h8v8H54v-9.2v-1.1h-1.1H43.7z M4.6,965v28.7H8V965H4.6z
		 M9.2,965v28.7h1.1V965H9.2z M12.1,965v28.7h5.7V965H12.1z M20.1,965v28.7h1.1V965H20.1z M22.4,965v28.7h1.1V965H22.4z M24.7,965
		v28.7h1.1V965H24.7z M27,965v28.7h4.6V965H27z M32.7,965v28.7h3.4V965H32.7z M38.5,965v28.7h1.1V965H38.5z M40.8,965v28.7h1.1V965
		H40.8z M43.7,965v28.7H46V965H43.7z M47.1,965v28.7h2.3V965H47.1z M0,988v9.2v1.1h1.1h9.2V996h-8v-8H0z M51.7,988v8h-8v2.3h9.2H54
		v-1.1V988H51.7z"/>
</g>
</svg>
