<?xml version="1.0" encoding="utf-8"?>
<!-- Generator: Adobe Illustrator 22.1.0, SVG Export Plug-In . SVG Version: 6.00 Build 0)  -->
<svg version="1.1" id="Слой_1" xmlns="http://www.w3.org/2000/svg" xmlns:xlink="http://www.w3.org/1999/xlink" x="0px" y="0px"
	 viewBox="0 0 66 66" style="enable-background:new 0 0 66 66;" xml:space="preserve">
<style type="text/css">
	.st0{fill:#1A1A1A;}
	.st1{fill:#FFFFFF;}
</style>
<g>
	<g id="XMLID_39_">
		<path class="st0" d="M33,1C19.7,1,9,11.7,9,25c0,20,21.8,40,24,40c1.7,0,24-20,24-40C57,11.7,46.3,1,33,1z"/>
		<path class="st1" d="M33,66c-1.9,0-8.5-6.3-13.6-12.9C14.2,46.3,8,35.9,8,25C8,11.2,19.2,0,33,0c13.8,0,25,11.2,25,25
			C58,45.2,35.8,66,33,66z M33,2C20.3,2,10,12.3,10,25c0,18.7,19.7,37.6,23,39c2.8-1.4,23-20,23-39C56,12.3,45.7,2,33,2z"/>
	</g>
	<path class="st1" d="M42.6,20h-0.4c-0.5,0-0.9,0.3-1.3,0.7c-0.5-1.3-1.2-2.8-1.6-3.4c-0.8-1.1-1.9-1.3-2.6-1.5
		c-1.1-0.2-6.1-0.2-7.2,0c-0.8,0.1-1.9,0.4-2.6,1.5c-0.4,0.6-1.1,2.1-1.7,3.4c-0.3-0.4-0.8-0.7-1.3-0.7h-0.4c-0.6,0-1.1,0.6-1.1,1.2
		V22c0,0.6,0.5,0.5,1.2,1.3H24c-0.1,0-0.1,0.1-0.1,0.1c-0.5,0.8-0.7,1.7-0.7,2.7v5.4c0,0.6,0.4,1,1.1,1h1.5c0.6,0,0.8-0.3,0.8-1
		v-0.7h13v0.7c0,0.6,0.2,1,0.8,1h1.5c0.6,0,1.1-0.3,1.1-1v-5.4c0-1-0.2-1.8-0.7-2.7C42,23.4,42,23.3,42,23.3h0.6
		c0.6-0.8,1.2-0.7,1.2-1.3v-0.8C43.7,20.6,43.2,20,42.6,20z M26.7,20.6l1.1-2.2c0.5-1,1.5-1.6,2.7-1.6h5.1c1.2,0,2.2,0.6,2.7,1.6
		l1.1,2.2c0.2,0.4-0.1,0.8-0.6,0.8H27.3C26.8,21.5,26.5,21,26.7,20.6z M29.8,26.1c-0.1,0.2-0.2,0.4-0.3,0.5
		c-0.1,0.1-0.3,0.2-0.5,0.2h-2.1c-0.5,0-0.9-0.4-0.9-0.9v-0.5c0-0.5,0.4-0.9,0.9-0.9c0.1,0,0.1,0,0.2,0l2.1,0.5
		c0.4,0.1,0.6,0.5,0.6,0.9C29.8,25.9,29.8,26,29.8,26.1z M40,25.8c0,0.5-0.4,0.9-0.9,0.9H37c-0.2,0-0.3-0.1-0.5-0.1
		c-0.2-0.1-0.3-0.3-0.3-0.5c0-0.1,0-0.2,0-0.2c0-0.4,0.2-0.7,0.6-0.9l2.1-0.5c0.1,0,0.1,0,0.2,0c0.5,0,0.9,0.4,0.9,0.9V25.8z"/>
</g>
</svg>
