<?xml version="1.0" encoding="utf-8"?>
<!-- Generator: Adobe Illustrator 22.1.0, SVG Export Plug-In . SVG Version: 6.00 Build 0)  -->
<svg version="1.1" id="Слой_1" xmlns="http://www.w3.org/2000/svg" xmlns:xlink="http://www.w3.org/1999/xlink" x="0px" y="0px"
	 viewBox="0 0 54 54" style="enable-background:new 0 0 54 54;" xml:space="preserve">
<style type="text/css">
	.st0{fill:#FFFFFF;}
</style>
<g>
	<path class="st0" d="M53.1,17.1c-6.9-7-16.2-10.8-26.2-10.8c-9.9,0-19.2,3.9-26.1,10.8c-1.1,1.2-1.1,3.1,0.1,4.3
		c1.2,1.2,3.1,1.2,4.3,0c5.9-5.8,13.6-9,21.8-9c8.3,0,16,3.2,21.8,9c0.6,0.6,1.4,0.9,2.2,0.9c0.8,0,1.5-0.3,2.2-0.9
		C54.3,20.1,54.3,18.2,53.1,17.1z"/>
	<path class="st0" d="M27,17c-6.9,0-13.6,2.8-18.5,7.7c-1.2,1.2-1.1,3.1,0.1,4.3c0.6,0.6,1.4,0.9,2.1,0.9c0.8,0,1.6-0.3,2.2-0.9
		C16.5,25.2,21.7,23,27,23c5.4,0,10.4,2.1,14.2,5.9c1.2,1.2,3.1,1.2,4.3,0c1.2-1.2,1.2-3.1,0-4.3C40.6,19.7,34,17,27,17z"/>
	<path class="st0" d="M27,27.7c-4.1,0-8,1.6-10.9,4.5c-1.2,1.2-1.2,3.1,0,4.3c1.2,1.2,3.1,1.2,4.3,0c3.5-3.5,9.7-3.5,13.2,0
		c0.6,0.6,1.4,0.9,2.2,0.9c0.8,0,1.5-0.3,2.2-0.9c1.2-1.2,1.2-3.1,0-4.3C35,29.3,31.1,27.7,27,27.7z"/>
	<circle class="st0" cx="27" cy="43.1" r="4.6"/>
</g>
</svg>
