<?xml version="1.0" encoding="utf-8"?>
<!-- Generator: Adobe Illustrator 22.1.0, SVG Export Plug-In . SVG Version: 6.00 Build 0)  -->
<svg version="1.1" id="Слой_1" xmlns="http://www.w3.org/2000/svg" xmlns:xlink="http://www.w3.org/1999/xlink" x="0px" y="0px"
	 viewBox="0 0 72 72" style="enable-background:new 0 0 72 72;" xml:space="preserve">
<style type="text/css">
	.st0{fill:#E3072B;}
	.st1{fill:#FFFFFF;}
</style>
<g>
	<circle class="st0" cx="36" cy="36" r="36"/>
	<g>
		<path class="st1" d="M51.5,30.1c-4.1-4.1-9.6-6.4-15.5-6.4c-5.9,0-11.4,2.3-15.5,6.4c-0.7,0.7-0.7,1.8,0,2.5
			c0.7,0.7,1.9,0.7,2.5,0c3.5-3.4,8.1-5.4,12.9-5.4c4.9,0,9.5,1.9,12.9,5.4c0.3,0.3,0.8,0.5,1.3,0.5c0.5,0,0.9-0.2,1.3-0.5
			C52.2,31.9,52.2,30.8,51.5,30.1z"/>
		<path class="st1" d="M36,30.1c-4.1,0-8.1,1.7-11,4.6c-0.7,0.7-0.7,1.9,0,2.5c0.3,0.3,0.8,0.5,1.2,0.5c0.5,0,0.9-0.2,1.3-0.5
			c2.2-2.2,5.3-3.5,8.4-3.5c3.2,0,6.2,1.2,8.4,3.5c0.7,0.7,1.9,0.7,2.5,0c0.7-0.7,0.7-1.9,0-2.5C44.1,31.7,40.1,30.1,36,30.1z"/>
		<path class="st1" d="M36,36.4c-2.4,0-4.7,0.9-6.5,2.7c-0.7,0.7-0.7,1.9,0,2.5c0.7,0.7,1.9,0.7,2.5,0c2.1-2.1,5.7-2.1,7.9,0
			c0.3,0.3,0.8,0.5,1.3,0.5s0.9-0.2,1.3-0.5c0.7-0.7,0.7-1.9,0-2.5C40.7,37.4,38.4,36.4,36,36.4z"/>
		<circle class="st1" cx="36" cy="45.6" r="2.7"/>
	</g>
</g>
</svg>
