<?xml version="1.0" encoding="utf-8"?>
<!-- Generator: Adobe Illustrator 22.1.0, SVG Export Plug-In . SVG Version: 6.00 Build 0)  -->
<svg version="1.1" id="Слой_1" xmlns="http://www.w3.org/2000/svg" xmlns:xlink="http://www.w3.org/1999/xlink" x="0px" y="0px"
	 viewBox="0 0 72 72" style="enable-background:new 0 0 72 72;" xml:space="preserve">
<style type="text/css">
	.st0{fill:#E3072B;}
	.st1{fill:#FFFFFF;}
</style>
<g>
	<circle class="st0" cx="36" cy="36" r="36"/>
	<g>
		<path class="st1" d="M36,20c-8.8,0-16,7.2-16,16s7.2,16,16,16s16-7.2,16-16S44.8,20,36,20z M36,21.8c1,0,1.8,0.8,1.8,1.8
			S37,25.3,36,25.3s-1.8-0.8-1.8-1.8S35,21.8,36,21.8z M36,44.9c-4.9,0-8.9-4-8.9-8.9s4-8.9,8.9-8.9s8.9,4,8.9,8.9
			S40.9,44.9,36,44.9z"/>
		<path class="st1" d="M41.3,35.9L41.3,35.9c0,3-2.4,5.4-5.3,5.4s-5.3-2.4-5.3-5.3s2.4-5.3,5.3-5.3c0.2,0,0.5,0,0.7,0.1
			C36.8,33.4,38.8,35.6,41.3,35.9z"/>
	</g>
</g>
</svg>
