<?xml version="1.0" encoding="utf-8"?>
<!-- Generator: Adobe Illustrator 22.1.0, SVG Export Plug-In . SVG Version: 6.00 Build 0)  -->
<svg version="1.1" id="Слой_1" xmlns="http://www.w3.org/2000/svg" xmlns:xlink="http://www.w3.org/1999/xlink" x="0px" y="0px"
	 viewBox="0 0 44 44" style="enable-background:new 0 0 44 44;" xml:space="preserve">
<style type="text/css">
	.st0{fill:#7AC943;}
</style>
<g>
	<path class="st0" d="M3.7,44h36.7c2,0,3.7-1.6,3.7-3.7v-11h-7.3v6.4c0,0.5-0.4,0.9-0.9,0.9H8.3c-0.5,0-0.9-0.4-0.9-0.9v-6.4H0v11
		C0,42.4,1.6,44,3.7,44L3.7,44z"/>
	<path class="st0" d="M27.5,1.8v12.8H33c2,0,2.6,1.3,1.4,2.9l-11.2,14c-0.6,0.8-1.7,0.8-2.3,0l-11.2-14C8.4,15.9,9,14.7,11,14.7h5.5
		V1.8c0-1,0.8-1.8,1.8-1.8h7.3C26.7,0,27.5,0.8,27.5,1.8L27.5,1.8z"/>
</g>
</svg>
