<?xml version="1.0" encoding="utf-8"?>
<!-- Generator: Adobe Illustrator 22.1.0, SVG Export Plug-In . SVG Version: 6.00 Build 0)  -->
<svg version="1.1" id="Слой_1" xmlns="http://www.w3.org/2000/svg" xmlns:xlink="http://www.w3.org/1999/xlink" x="0px" y="0px"
	 viewBox="0 0 44 44" style="enable-background:new 0 0 44 44;" xml:space="preserve">
<style type="text/css">
	.st0{fill:#E3072B;}
	.st1{fill:#FFFFFF;}
</style>
<g>
	<g>
		<path class="st0" d="M44,13.7v11.1l0,0v10.2c0,4.3-3.1,8-6.8,8H5.7c0,0-0.1,0-0.2,0H4.9H4.8c-0.1,0-0.1,0-0.2,0
			c-2.2,0-4.1-1.5-4.5-3.6C0,39.2,0,38.8,0,38.5V7.9c0-3.7,3.1-7,6.5-7h4.2c3.1,0,5.8,3.1,6.4,5.5h19.6C40.7,6.4,44,9.7,44,13.7z"/>
	</g>
	<g>
		<path class="st1" d="M26.6,24.2c0.2,0.2,0.5,0.5,0.5,0.9c0,0.2-0.2,0.7-0.5,0.9l-8.2,5.3c-0.2,0-0.5,0.2-0.5,0.2
			c-0.2,0-0.2,0-0.5-0.2c-0.2-0.2-0.5-0.5-0.5-0.9V20c0-0.5,0.2-0.7,0.5-0.9s0.7-0.2,0.9,0L26.6,24.2z"/>
	</g>
</g>
</svg>
