<?xml version="1.0" encoding="utf-8"?>
<!-- Generator: Adobe Illustrator 22.1.0, SVG Export Plug-In . SVG Version: 6.00 Build 0)  -->
<svg version="1.1" id="Слой_1" xmlns="http://www.w3.org/2000/svg" xmlns:xlink="http://www.w3.org/1999/xlink" x="0px" y="0px"
	 viewBox="0 0 54 54" style="enable-background:new 0 0 54 54;" xml:space="preserve">
<style type="text/css">
	.st0{fill:#00ABC3;}
</style>
<path class="st0" d="M27,0C12.1,0,0,12.1,0,27s12.1,27,27,27s27-12.1,27-27S41.9,0,27,0z M26.6,44.8c-1.7,0-3.1-1.4-3.1-3.1
	c0-1.7,1.4-3.1,3.1-3.1c1.7,0,3.1,1.4,3.1,3.1l0,0C29.7,43.4,28.3,44.8,26.6,44.8z M30,29.8c0,0-0.3,0.1-0.3,0.3v2.5
	c0,1.7-1.4,3.1-3.1,3.1c-1.7,0-3.1-1.4-3.1-3.1l0,0V30c0-2.8,1.8-5.3,4.5-6.1c1.8-0.6,3-2.4,3-4.3c-0.1-2.4-2.1-4.2-4.4-4.3
	c-1.7,0-3.2,1-3.9,2.5c-0.7,1.5-2.6,2.2-4.1,1.4c-1.5-0.7-2.2-2.6-1.4-4.1c1.7-3.6,5.4-5.9,9.4-6h0.1c5.7,0,10.3,4.5,10.5,10.2
	C37.3,24.1,34.4,28.3,30,29.8L30,29.8z"/>
</svg>
