<?xml version="1.0" encoding="utf-8"?>
<!-- Generator: Adobe Illustrator 22.1.0, SVG Export Plug-In . SVG Version: 6.00 Build 0)  -->
<svg version="1.1" id="Слой_1" xmlns="http://www.w3.org/2000/svg" xmlns:xlink="http://www.w3.org/1999/xlink" x="0px" y="0px"
	 viewBox="0 0 54 54" style="enable-background:new 0 0 54 54;" xml:space="preserve">
<style type="text/css">
	.st0{fill:#FFFFFF;}
</style>
<g>
	<path class="st0" d="M27,0C12.1,0,0,12.1,0,27s12.1,27,27,27s27-12.1,27-27S41.9,0,27,0z M27,3c1.7,0,3,1.3,3,3s-1.3,3-3,3
		s-3-1.3-3-3S25.3,3,27,3z M27,42c-8.3,0-15-6.7-15-15s6.7-15,15-15s15,6.7,15,15S35.3,42,27,42z"/>
	<path class="st0" d="M36,26.9L36,26.9c0,5.1-4,9.1-9,9.1s-9-4-9-9s4-9,9-9c0.4,0,0.8,0,1.2,0.1C28.3,22.6,31.6,26.3,36,26.9z"/>
</g>
</svg>
