<?xml version="1.0" encoding="utf-8"?>
<!-- Generator: Adobe Illustrator 22.1.0, SVG Export Plug-In . SVG Version: 6.00 Build 0)  -->
<svg version="1.1" id="Слой_1" xmlns="http://www.w3.org/2000/svg" xmlns:xlink="http://www.w3.org/1999/xlink" x="0px" y="0px"
	 viewBox="0 0 54 54" style="enable-background:new 0 0 54 54;" xml:space="preserve">
<style type="text/css">
	.st0{fill:#FFFFFF;}
</style>
<path id="XMLID_204_" class="st0" d="M27,0L27,0C12.1,0,0,12.1,0,27l0,0c0,14.9,12.1,27,27,27l0,0c14.9,0,27-12.1,27-27l0,0
	C54,12.1,41.9,0,27,0z M24.9,13.3c0-1.2,1-2.1,2.1-2.1c0.6,0,1.1,0.2,1.5,0.7c0.4,0.4,0.6,0.8,0.6,1.4v0.9c0,4.7,0,9.6,0,14.3
	c0,1.1-1,2-2.1,2l0,0c-1.1,0-2.1-0.9-2.1-2c0-1.8,0-3.6,0-5.4c0-0.8,0-1.5,0-2.3v-0.6l0,0c0-0.5,0-1.1,0-1.6
	C24.9,16.9,24.9,15.1,24.9,13.3z M29.8,42.6c-8.1,1.5-16-3.8-17.5-11.9c0,0,0-0.1,0-0.1c-0.9-5,0.5-9.5,4.1-13.3
	c0.4-0.4,1-0.7,1.6-0.7c0.5,0,1,0.2,1.4,0.6c0.4,0.4,0.7,0.9,0.7,1.5c0,0.6-0.2,1.1-0.6,1.5c-1.7,1.7-2.7,3.7-3,6
	c-0.8,5.9,3.3,11.4,9.2,12.2c5.9,0.8,11.4-3.3,12.2-9.2c0.4-3.4-0.6-6.4-3-8.9c-0.7-0.7-0.9-1.4-0.6-2.2c0.3-1.1,1.5-1.7,2.6-1.4
	c0.3,0.1,0.6,0.3,0.9,0.5c2.6,2.6,4,5.8,4.4,9.4c0,0.3,0,0.6,0.1,0.9c0,0.1,0,0.3,0,0.4C42,35.1,36.9,41.2,29.8,42.6z"/>
</svg>
