<?xml version="1.0" encoding="utf-8"?>
<!-- Generator: Adobe Illustrator 22.1.0, SVG Export Plug-In . SVG Version: 6.00 Build 0)  -->
<svg version="1.1" id="Слой_1" xmlns="http://www.w3.org/2000/svg" xmlns:xlink="http://www.w3.org/1999/xlink" x="0px" y="0px"
	 viewBox="0 0 54 54" style="enable-background:new 0 0 54 54;" xml:space="preserve">
<style type="text/css">
	.st0{fill:#CCCCCC;}
</style>
<path class="st0" d="M7.9,7.9c-10.5,10.5-10.5,27.6,0,38.2s27.6,10.5,38.2,0s10.5-27.6,0-38.2S18.5-2.6,7.9,7.9z M28.1,11.3
	c2.3,0,4.1,1.9,4.1,4.2s-1.9,4.2-4.1,4.2c-2.3,0-4.2-1.9-4.2-4.2C23.9,13.2,25.8,11.3,28.1,11.3z M34,39.2c-0.1,0.3-0.3,0.7-0.6,1
	c-1.5,1.5-3.3,2.5-5.5,2.5c-1,0-2,0-3-0.2c-1.7-0.2-3.8-2.3-3.5-4.4c0.2-1.5,0.5-3,0.7-4.4c0.5-2.6,0.9-5.2,1.4-7.8
	c0-0.2,0.1-0.3,0.1-0.5c0-1.1-0.3-1.5-1.4-1.6c-0.5-0.1-0.9-0.1-1.4-0.2c-0.5-0.2-0.8-0.6-0.7-1c0.1-0.5,0.3-0.7,0.9-0.9
	c0.3-0.1,0.6-0.1,1-0.1c1.3,0,2.5,0,3.8,0c1.4,0,2.7,0,4,0c1,0,1.5,0.5,1.5,1.4c0,0.8-0.1,1.6-0.3,2.4c-0.5,3-1.1,5.9-1.6,8.8
	c-0.2,1-0.4,1.9-0.5,2.9c-0.1,0.5,0,1,0.1,1.4c0.2,0.6,0.6,1,1.3,0.9c0.5-0.1,1-0.2,1.5-0.5c0.4-0.2,0.7-0.5,1.1-0.6
	C33.6,38.2,34.1,38.6,34,39.2z"/>
</svg>
