<?xml version="1.0" encoding="utf-8"?>
<!-- Generator: Adobe Illustrator 22.1.0, SVG Export Plug-In . SVG Version: 6.00 Build 0)  -->
<svg version="1.1" id="Слой_1" xmlns="http://www.w3.org/2000/svg" xmlns:xlink="http://www.w3.org/1999/xlink" x="0px" y="0px"
	 viewBox="0 0 54 54" style="enable-background:new 0 0 54 54;" xml:space="preserve">
<style type="text/css">
	.st0{fill:#FFFFFF;}
</style>
<path id="XMLID_512_" class="st0" d="M23.2,0l-1.9,6.6c-1.7,0.5-3.3,1.1-4.8,2l-5.9-3.3l-5.3,5.3l3.3,5.9c-0.9,1.5-1.5,3.1-2,4.8
	L0,23.2v7.5l6.6,1.9c0.5,1.7,1.1,3.3,2,4.8l-3.3,5.9l5.3,5.3l5.9-3.3c1.5,0.9,3.1,1.5,4.8,2l1.9,6.6h7.5l1.9-6.6
	c1.7-0.5,3.3-1.1,4.8-2l5.9,3.3l5.3-5.3l-3.3-5.9c0.9-1.5,1.5-3.1,2-4.8l6.6-1.9v-7.5l-6.6-1.9c-0.5-1.7-1.1-3.3-2-4.8l3.3-5.9
	l-5.3-5.3l-5.9,3.3c-1.5-0.9-3.1-1.5-4.8-2L30.8,0H23.2z M27,14.7c6.7,0,12.3,5.5,12.3,12.3S33.7,39.3,27,39.3S14.7,33.7,14.7,27
	S20.3,14.7,27,14.7z M27,22.1c-2.8,0-4.9,2.2-4.9,4.9s2.2,4.9,4.9,4.9s4.9-2.2,4.9-4.9S29.8,22.1,27,22.1z"/>
</svg>
