<?xml version="1.0" encoding="utf-8"?>
<!-- Generator: Adobe Illustrator 22.1.0, SVG Export Plug-In . SVG Version: 6.00 Build 0)  -->
<svg version="1.1" id="Слой_1" xmlns="http://www.w3.org/2000/svg" xmlns:xlink="http://www.w3.org/1999/xlink" x="0px" y="0px"
	 viewBox="0 0 54 54" style="enable-background:new 0 0 54 54;" xml:space="preserve">
<style type="text/css">
	.st0{fill:#CCCCCC;}
</style>
<g>
	<g>
		<path class="st0" d="M46.2,9.1L37.9,1c-0.6-0.6-1.5-1-2.4-1H13.6C9.9,0,6.8,3,6.8,6.8v40.5c0,3.7,3,6.8,6.8,6.8h26.8
			c3.7,0,6.8-3,6.8-6.8V11.5C47.2,10.7,46.8,9.8,46.2,9.1z M19.4,47.7h-2.8c-1.9,0-3.4-1.5-3.4-3.4v-2.8c0-0.5,0.4-0.8,0.8-0.8h5.4
			c0.5,0,0.8,0.4,0.8,0.8v5.4C20.2,47.3,19.9,47.7,19.4,47.7z M19.4,27.1H14c-0.5,0-0.8-0.4-0.8-0.8v-2.8c0-1.9,1.5-3.4,3.4-3.4h2.8
			c0.5,0,0.8,0.4,0.8,0.8v5.4C20.2,26.7,19.9,27.1,19.4,27.1z M29.5,47.7h-5.1c-0.5,0-0.8-0.4-0.8-0.8v-5.4c0-0.5,0.4-0.8,0.8-0.8
			l5.1,0c0.5,0,0.8,0.4,0.8,0.8v5.4C30.4,47.3,30,47.7,29.5,47.7z M29.5,27.1l-5.1,0c-0.5,0-0.8-0.4-0.8-0.8v-5.4
			c0-0.5,0.4-0.8,0.8-0.8h5.1c0.5,0,0.8,0.4,0.8,0.8v5.4C30.4,26.7,30,27.1,29.5,27.1z M40.8,44.3c0,1.9-1.5,3.4-3.4,3.4h-2.8
			c-0.5,0-0.8-0.4-0.8-0.8v-5.4c0-0.5,0.4-0.8,0.8-0.8H40c0.5,0,0.8,0.4,0.8,0.8V44.3z M13.2,36.4v-5.1c0-0.5,0.4-0.8,0.8-0.8
			l25.9,0c0.5,0,0.8,0.4,0.8,0.8v5.1c0,0.5-0.4,0.8-0.8,0.8l-25.9,0C13.6,37.2,13.2,36.8,13.2,36.4z M40,27.1h-5.4
			c-0.5,0-0.8-0.4-0.8-0.8v-5.4c0-0.5,0.4-0.8,0.8-0.8h2.8c1.9,0,3.4,1.5,3.4,3.4v2.8C40.8,26.7,40.4,27.1,40,27.1z"/>
	</g>
</g>
</svg>
