<?xml version="1.0" encoding="utf-8"?>
<!-- Generator: Adobe Illustrator 22.1.0, SVG Export Plug-In . SVG Version: 6.00 Build 0)  -->
<svg version="1.1" id="Слой_1" xmlns="http://www.w3.org/2000/svg" xmlns:xlink="http://www.w3.org/1999/xlink" x="0px" y="0px"
	 viewBox="0 0 54 54" style="enable-background:new 0 0 54 54;" xml:space="preserve">
<style type="text/css">
	.st0{fill:#FFFFFF;}
</style>
<path class="st0" d="M52.4,3.5H1.6C0.7,3.5,0,4.3,0,5.2v43.6c0,0.9,0.7,1.6,1.6,1.6h50.7c0.9,0,1.6-0.7,1.6-1.6V5.2
	C54,4.3,53.3,3.5,52.4,3.5z M13.4,45.2c0,0.5-0.4,1-1,1H5c-0.5,0-1-0.4-1-1v-7.4c0-0.5,0.4-1,1-1h7.4c0.5,0,1,0.4,1,1L13.4,45.2z
	 M13.4,30.2c0,0.5-0.4,1-1,1H5c-0.5,0-1-0.4-1-1v-7.4c0-0.5,0.4-1,1-1h7.4c0.5,0,1,0.4,1,1L13.4,30.2z M13.4,15.1c0,0.5-0.4,1-1,1H5
	c-0.5,0-1-0.4-1-1V7.6c0-0.5,0.4-1,1-1h7.4c0.5,0,1,0.4,1,1L13.4,15.1z M49.3,45.2c0,0.5-0.4,1-1,1h-7.4c-0.5,0-1-0.4-1-1v-7.4
	c0-0.5,0.4-1,1-1h7.4c0.5,0,1,0.4,1,1V45.2z M49.3,30.2c0,0.5-0.4,1-1,1h-7.4c-0.5,0-1-0.4-1-1v-7.4c0-0.5,0.4-1,1-1h7.4
	c0.5,0,1,0.4,1,1V30.2z M49.3,15.1c0,0.5-0.4,1-1,1h-7.4c-0.5,0-1-0.4-1-1V7.6c0-0.5,0.4-1,1-1h7.4c0.5,0,1,0.4,1,1V15.1z"/>
</svg>
