<?xml version="1.0" encoding="utf-8"?>
<!-- Generator: Adobe Illustrator 22.1.0, SVG Export Plug-In . SVG Version: 6.00 Build 0)  -->
<svg version="1.1" id="Слой_1" xmlns="http://www.w3.org/2000/svg" xmlns:xlink="http://www.w3.org/1999/xlink" x="0px" y="0px"
	 viewBox="0 0 44 44" style="enable-background:new 0 0 44 44;" xml:space="preserve">
<style type="text/css">
	.st0{fill:#E3072B;}
	.st1{fill:#FFFFFF;}
</style>
<g>
	<path class="st0" d="M30.4,2.2C30.1,1.9,29.5,1.8,29,2s-0.8,0.7-0.8,1.2v6.5c0,0.7,0.6,1.3,1.3,1.3H36c0.5,0,1-0.3,1.2-0.8
		s0.1-1.1-0.3-1.4L30.4,2.2z"/>
	<path class="st0" d="M28.1,13.8c-1.5,0-2.6-1.2-2.6-2.6V1.3c0-0.7-0.6-1.3-1.3-1.3H8.9C6.6,0,4.8,1.8,4.8,4.1v35.8
		c0,2.3,1.8,4.1,4.1,4.1h26.2c2.3,0,4.1-1.8,4.1-4.1V15.1c0-0.7-0.6-1.3-1.3-1.3H28.1z"/>
</g>
<g>
	<path class="st1" d="M27,25.9c0.2,0.2,0.5,0.5,0.5,0.9c0,0.2-0.2,0.7-0.5,0.9L18.8,33c-0.2,0-0.5,0.2-0.5,0.2c-0.2,0-0.2,0-0.5-0.2
		c-0.2-0.2-0.5-0.5-0.5-0.9V21.7c0-0.5,0.2-0.7,0.5-0.9s0.7-0.2,0.9,0L27,25.9z"/>
</g>
</svg>
